<?xml version="1.0" encoding="utf-8"?>
<!-- Generator: Adobe Illustrator 22.1.0, SVG Export Plug-In . SVG Version: 6.00 Build 0)  -->
<svg version="1.1" id="Calque_1" xmlns="http://www.w3.org/2000/svg" xmlns:xlink="http://www.w3.org/1999/xlink" x="0px" y="0px"
	 viewBox="0 0 181.9 40" style="enable-background:new 0 0 181.9 40;" xml:space="preserve">
<style type="text/css">
	.st0{fill:#C42F31;}
	.st1{fill:#E2E2E2;}
	.st2{fill:none;}
	.st3{fill:#3038C1;}
</style>
<g>
	<path class="st0" d="M22.9,12.6c0.1,0,0.3,0,0.4,0.1c-0.3,0-0.6,0-0.8,0.1C22.6,12.7,22.7,12.6,22.9,12.6z"/>
	<path class="st0" d="M129.3,18.4c0-2.9,0.9-5.3,2.5-7.2c1.7-1.9,4-2.8,6.8-2.8c3.3,0,5.7,1.1,7.4,3.3c1.3,1.8,2,4,2,6.6
		c0,2.9-0.8,5.4-2.5,7.2c-1.7,1.9-4,2.8-6.9,2.8c-2.6,0-4.7-0.8-6.4-2.4C130.3,24.1,129.3,21.5,129.3,18.4z M135.5,18.4
		c0,1.8,0.3,3.1,0.9,3.9c0.6,0.9,1.4,1.3,2.3,1.3c0.9,0,1.7-0.4,2.3-1.3c0.6-0.8,0.9-2.2,0.9-4c0-1.7-0.3-3-0.9-3.9
		c-0.6-0.8-1.4-1.3-2.3-1.3c-0.9,0-1.7,0.4-2.4,1.3C135.8,15.4,135.5,16.7,135.5,18.4z"/>
	<path class="st0" d="M126.5,20.2l-12.6,0c0.1,1.2,0.4,2,0.8,2.6c0.6,0.8,1.4,1.2,2.4,1.2c0.6,0,1.2-0.2,1.8-0.5
		c0.3-0.2,0.7-0.6,1.1-1.2l6.2,0.7c-1,1.9-2.1,3.3-3.4,4.1c-1.3,0.8-3.2,1.2-5.7,1.2c-2.2,0-3.9-0.4-5.1-1.1
		c-1.2-0.7-2.3-1.9-3.1-3.4c-0.8-1.6-1.2-3.4-1.2-5.5c0-3,0.8-5.4,2.5-7.3c1.6-1.8,3.9-2.8,6.8-2.8c2.3,0,4.2,0.4,5.5,1.3
		c1.4,0.8,2.4,2,3.1,3.6c0.7,1.6,1.1,3.6,1,6.1L126.5,20.2L126.5,20.2z M120.3,16.6c-0.1-1.5-0.5-2.5-1-3.2c-0.5-0.6-1.3-1-2.2-1
		c-1,0-1.9,0.5-2.5,1.4c-0.4,0.6-0.7,1.5-0.8,2.7L120.3,16.6z"/>
	<path class="st0" d="M89.1,8.4l15.8,0l0,4.5l-8.6,10.2l9.1,0l0,5.2l-16.9,0l0-4.9l8.2-9.7l-7.5,0L89.1,8.4z"/>
	<path class="st0" d="M79.1,0.8l6.5,0l0,5.2l-6.5,0L79.1,0.8z M79.1,8.3l6.5,0l0,19.9l-6.5,0L79.1,8.3z"/>
	<polygon class="st0" points="63.7,20.5 58.4,0.8 50.9,0.8 59.7,28.2 67.5,28.2 76.3,0.8 68.9,0.8 	"/>
	<path class="st0" d="M136.8,30.3c-0.7,0-1.4-0.1-2,0c-0.3,0-0.6,0.3-0.9,0.4c-4.5,2.1-9.6,3.8-15.1,4.9c-5.9,1.2-12.5,2-19.6,1.9
		c-10.6-0.1-19.7-1.9-27.6-4.7c-2.2-0.8-4.5-1.8-6.6-2.8c-0.1-0.1-0.3-0.2-0.5-0.2h-4c0.2,0.2,0.5,0.3,0.7,0.5
		c8.1,5,18.5,7.8,30.6,9c1.8,0.2,3.7,0.2,5.6,0.4c1.7,0,3.4,0,5.1,0c14.7-0.6,26.9-3.6,36.3-9.3C138.1,30.2,137.5,30.3,136.8,30.3z"
		/>
	<g>
		<path class="st0" d="M56,25.1c-1.2-1.1-2.3-2.4-3.3-3.6c-0.4-0.5-1.5-2-1.9-2.5c0,0,0,0.1,0,0.1c0.6,1.7,2.1,4.1,3.1,5.5
			c1,1.3,2.3,2.6,3.5,3.6l-0.9-2.6C56.4,25.5,56.2,25.3,56,25.1z"/>
	</g>
	<g>
		<path class="st0" d="M34.6,4.5c-1.7-1.8-4.4-2.3-4.5-2.3l0,0l-8.4-1.3l0,0l-0.6-0.1c-0.1,0-0.1,0-0.2,0l-0.8-0.1l0,0.1
			C9.3,0.1,2.7,6.9,0.9,9l0.9,0.8C3.6,7.7,10,1.2,20.5,2l0.2,0l9.2,1.4c0.2,0,2.5,0.5,3.8,2l11.9,12.5c-0.1,0.1-0.3,0.3-0.5,0.3
			c-0.6,0.1-1.4-0.2-2.3-0.9l-3.2-3.1c0.2-0.5-0.1-0.9-0.3-1.1c-0.1-0.1-3-2.8-4.3-4c-1.4-1.3-3.8-2.4-3.9-2.4l0,0l-7-2.7l-0.4,1.1
			l7,2.6c0.2,0.1,2.3,1.1,3.5,2.2c1.2,1.1,3.7,3.5,4.2,3.9c0,0,0,0,0,0.1c-0.1,0.1-0.4,0.4-1,0.5c-0.6,0-1.3-0.3-2-1
			c-2.6-2.5-6.5-2.7-6.6-2.8l-0.1,0l-0.1,0.1c0,0-1.1,0.5-2.8,0.7c-1.5,0.2-3.9,0.3-6.3-0.6l-0.2-0.1l-0.2,0
			c-0.9,0.2-8.7,2-12.9,5.7c0.2,0.1,0.4,0.3,0.6,0.4l0,0l0.3,0.3c1.6-1.4,4.1-2.6,7.1-3.7c2.3-0.9,4.3-1.3,5-1.5
			c0.5,0.2,1,0.3,1.5,0.4c1.2,0.3,2.4,0.3,3.4,0.3c0.1-0.1,0.3-0.2,0.5-0.2c0.1,0,0.3,0,0.4,0.1c0.3,0,0.7-0.1,1-0.1
			c0.9-0.1,1.7-0.3,2.2-0.5c0.3-0.1,0.6-0.2,0.8-0.3c0.7,0.1,3.7,0.4,5.7,2.4c1,1,2,1.4,2.9,1.4c0.6,0,1.1-0.3,1.4-0.5l2.8,2.7
			l0.3,0.3l0,0c0.2,0.2,0.4,0.3,0.6,0.4c0.8,0.5,1.5,0.8,2.1,0.8c0.2,0,0.4,0,0.6-0.1c0.9-0.2,1.4-0.9,1.6-1.3l0.2-0.4L34.6,4.5z"/>
		<path class="st0" d="M47,25.4c-1.7,2-8.2,8.6-18.6,7.8l-0.2,0L19,31.8c-0.2,0-2.5-0.5-3.8-2L3.2,17.3c0.1-0.1,0.3-0.2,0.5-0.3
			c0.6-0.1,1.3,0.2,2.3,0.9L9.1,21c-0.2,0.5,0.1,0.9,0.3,1.1c0.1,0.1,3,2.8,4.3,4c1.4,1.3,3.8,2.4,3.9,2.4l0,0l7,2.7L25,30l-7-2.6
			c-0.2-0.1-2.3-1.1-3.5-2.2c-1.2-1.1-3.7-3.5-4.2-3.9c0,0,0,0,0-0.1c0.1-0.1,0.5-0.4,1-0.5c0.6,0,1.3,0.3,2,1
			c2.6,2.5,6.5,2.7,6.6,2.8l0.1,0l0.1-0.1c0,0,1.1-0.5,2.8-0.7c1.5-0.2,3.9-0.3,6.3,0.6l0.2,0.1l0.2,0c0.9-0.2,8.7-2,12.9-5.7
			c-0.2-0.1-0.4-0.3-0.6-0.4l0,0l-0.3-0.3c-1.6,1.4-4,2.6-7.1,3.7c-2.3,0.9-4.3,1.3-5,1.5c-0.5-0.2-0.9-0.3-1.4-0.4
			c-2.1-0.5-4-0.4-5.4-0.2c-0.6,0.1-1.2,0.2-1.7,0.3c-0.6,0.2-1.1,0.3-1.3,0.4c-0.7-0.1-3.7-0.4-5.7-2.4c-1-1-2-1.4-2.9-1.4
			c-0.6,0-1.1,0.3-1.4,0.5l-2.8-2.7L6.8,17l0,0c-0.2-0.2-0.4-0.3-0.6-0.4c-1-0.7-1.9-0.9-2.7-0.7c-0.9,0.2-1.4,0.9-1.6,1.3l-0.2,0.4
			l12.5,13.1c1.7,1.8,4.4,2.3,4.5,2.4h0l8.4,1.3l0,0l0.6,0.1c0.1,0,0.1,0,0.2,0l0.8,0.1l0-0.1c0.5,0,0.9,0,1.3,0
			c9.9,0,16.1-6.3,17.8-8.3L47,25.4z"/>
		<path class="st0" d="M28.3,22.7c-2.1-0.5-4-0.4-5.4-0.2c-0.6,0.1-1.2,0.2-1.7,0.3c-1.8-1.1-3-3.1-3-5.4c0-2,0.9-3.8,2.4-5
			c1.2,0.3,2.4,0.3,3.4,0.3c-0.1,0.1-0.2,0.3-0.2,0.5v3.4c0,0.4,0.3,0.7,0.7,0.7s0.7-0.3,0.7-0.7v-3.4c0-0.2-0.1-0.5-0.3-0.6
			c0.3,0,0.7-0.1,1-0.1c0.9-0.1,1.7-0.3,2.2-0.5c1.8,1.1,2.9,3.1,2.9,5.4C31,19.6,30,21.5,28.3,22.7z M24.7,22.3
			c1.2,0,2.3-0.5,3.2-1.3c0.9-0.8,1.4-2,1.4-3.2c0-1.3-0.5-2.5-1.4-3.4c-0.3-0.3-0.7-0.3-1,0c-0.3,0.3-0.3,0.7,0,1
			c0.6,0.6,1,1.4,1,2.3c0,0.8-0.3,1.6-0.9,2.2c-0.6,0.6-1.4,0.9-2.2,0.9c0,0,0,0,0,0c-1.7,0-3.1-1.4-3.1-3.2c0-0.7,0.3-1.5,0.8-2
			c0.3-0.3,0.2-0.7-0.1-1c-0.3-0.3-0.7-0.2-1,0.1c-0.7,0.8-1.1,1.9-1.1,2.9C20.1,20.3,22.1,22.3,24.7,22.3
			C24.6,22.3,24.7,22.3,24.7,22.3z"/>
	</g>
</g>
<ellipse class="st1" cx="165.6" cy="31.3" rx="4.1" ry="1.5"/>
<path class="st2" d="M165.3,8.9c-1.2,0-2.3,0.2-3.3,0.6V27c1,0.4,2.1,0.6,3.3,0.6c1.2,0,2.3-0.2,3.3-0.6V9.5
	C167.6,9.2,166.5,8.9,165.3,8.9z"/>
<g>
	<path class="st3" d="M156,18.2c0,4,2.5,7.4,6,8.7V9.5C158.5,10.9,156,14.3,156,18.2z"/>
</g>
<path class="st3" d="M156,18.2c0,4,2.5,7.4,6,8.7V9.5C158.5,10.9,156,14.3,156,18.2z"/>
<path class="st0" d="M174.7,18.2c0-4-2.5-7.4-6-8.7V27C172.2,25.6,174.7,22.2,174.7,18.2z"/>
</svg>
